<?xml version='1.0' encoding='UTF-8'?>
<svg version="1.1" id="Layer_1" xmlns="http://www.w3.org/2000/svg" xmlns:xlink="http://www.w3.org/1999/xlink" x="0px" y="0px" width="218.079px" height="54.805px" viewBox="-649.5 590.195 218.079 54.805" enable-background="new -649.5 590.195 218.079 54.805" xml:space="preserve">
<rect x="-751.474" y="533.506" display="none" fill="#172226" width="430.554" height="166.707"></rect>
<path fill="#DAE6EB" d="M-632.125,590.195c-9.598,0-17.375,7.862-17.375,17.569c0,8.382,12.934,30.767,16.479,36.734  c0.188,0.303,0.527,0.501,0.896,0.501c0.357,0,0.7-0.198,0.881-0.501c3.545-5.97,16.482-28.354,16.482-36.734  C-614.769,598.059-622.537,590.195-632.125,590.195z M-631.375,639.787c-0.154,0.26-0.447,0.43-0.752,0.43  c-0.313,0-0.604-0.17-0.765-0.43c-3.025-5.096-14.063-24.197-14.063-31.35c0-8.285,6.638-14.996,14.828-14.996  c8.185,0,14.812,6.711,14.819,14.996C-617.307,615.589-628.349,634.693-631.375,639.787z"></path>
<path fill="#FF5B00" d="M-632.126,595.631c-7.154,0-12.952,5.859-12.952,13.1c0,6.246,9.642,22.934,12.284,27.383  c0.141,0.227,0.394,0.373,0.668,0.373c0.266,0,0.522-0.146,0.656-0.373c2.643-4.449,12.287-21.137,12.287-27.383  C-619.189,601.492-624.979,595.631-632.126,595.631z M-632.126,618.357c-5.247,0-9.513-4.32-9.513-9.629  c0-5.311,4.267-9.625,9.513-9.625c5.24,0,9.504,4.314,9.504,9.625C-622.623,614.036-626.886,618.357-632.126,618.357z"></path>
<path display="none" fill="#DAE6EB" d="M-566.797,629.027c-1.56,1.08-3.024,1.619-4.392,1.619c-1.368,0-2.334-0.324-2.898-0.973  c-0.563-0.646-0.846-1.499-0.846-2.557c0-1.057,0.562-3.772,1.691-8.153c1.129-4.379,1.692-7.099,1.692-8.153  c0-1.32-0.468-1.979-1.403-1.979c-0.937,0-2.209,0.696-3.816,2.089c-0.048,0.191-0.444,1.654-1.188,4.393  c-1.633,6-2.509,10.836-2.629,14.508c-0.936,0.358-2.628,0.541-5.076,0.541h-0.468c0-1.488,0.636-4.92,1.908-10.297  c1.272-5.375,1.908-8.509,1.908-9.396c0-1.225-0.492-1.837-1.476-1.837c-1.058,0-2.438,0.743-4.141,2.231  c0,4.896-0.863,9.479-2.592,13.752c-0.816,2.017-1.878,3.652-3.186,4.914c-1.31,1.26-2.652,1.891-4.033,1.891  c-1.379,0-2.459-0.414-3.239-1.241c-0.78-0.828-1.17-1.979-1.17-3.456s0.528-3.217,1.584-5.221s2.178-3.721,3.366-5.147  c1.188-1.427,2.406-2.718,3.654-3.87c0-2.208-0.265-3.539-0.793-3.994c-0.264-0.218-0.642-0.324-1.134-0.324  s-1.212,0.216-2.16,0.646c-0.948,0.434-1.854,1.021-2.718,1.766l-0.9-1.262c0.84-1.029,2.101-2.027,3.78-2.986  c1.681-0.959,3.175-1.439,4.481-1.439c1.309,0,2.341,0.342,3.097,1.025c0.756,0.685,1.29,1.555,1.603,2.608  c3.312-2.711,5.926-4.067,7.848-4.067c0.96,0,1.781,0.301,2.466,0.899c0.685,0.601,1.122,1.5,1.313,2.7  c2.832-2.398,5.196-3.602,7.093-3.602c1.056,0,1.95,0.42,2.682,1.261s1.099,1.975,1.099,3.401c0,1.428-0.588,4.303-1.765,8.623  c-1.176,4.318-1.764,7.049-1.764,8.188c0,1.142,0.36,1.71,1.079,1.71c0.24,0,0.541-0.061,0.9-0.182L-566.797,629.027z   M-598.441,628.199c0.96,0,1.914-1.191,2.861-3.582c0.948-2.389,1.59-5.383,1.926-8.98c-1.535,1.584-2.915,3.463-4.139,5.637  c-1.225,2.172-1.837,3.867-1.837,5.094C-599.629,627.588-599.233,628.199-598.441,628.199z"></path>
<path display="none" fill="#DAE6EB" d="M-556.177,616.5c0,1.008-0.324,2.74-0.972,5.201c-0.648,2.46-0.972,4.068-0.972,4.824  s0.107,1.133,0.323,1.133c0.144,0,0.696-0.229,1.656-0.686l0.433-0.216l0.611,1.263c-0.216,0.189-0.504,0.432-0.863,0.719  c-0.361,0.289-1.033,0.68-2.017,1.17c-0.983,0.492-1.896,0.738-2.736,0.738c-0.84,0-1.5-0.26-1.979-0.772  c-0.48-0.517-0.721-1.213-0.721-2.089c0-0.877,0.301-2.438,0.9-4.68c0.6-2.244,0.9-3.703,0.9-4.375c0-1.01-0.312-1.957-0.937-2.846  l-0.323-0.434l0.035-0.467c1.272-0.359,3.336-0.541,6.192-0.541C-556.333,614.807-556.177,615.49-556.177,616.5z M-560.283,610.506  c-0.479-0.469-0.719-1.1-0.719-1.891c0-0.793,0.329-1.487,0.989-2.088c0.66-0.602,1.422-0.899,2.286-0.899  c0.863,0,1.536,0.239,2.016,0.72c0.48,0.479,0.721,1.11,0.721,1.891c0,0.781-0.342,1.472-1.026,2.069  c-0.685,0.603-1.446,0.9-2.286,0.9S-559.802,610.973-560.283,610.506z"></path>
<path display="none" fill="#DAE6EB" d="M-551.048,630.648c-0.828,0-1.512-0.275-2.052-0.828c-0.54-0.551-0.81-1.325-0.81-2.321  c0-0.995,0.594-4.177,1.781-9.539c1.188-5.364,1.782-9.234,1.782-11.61l-0.216-1.584c1.872-0.646,3.624-0.972,5.256-0.972  c0.24,0.336,0.359,0.924,0.359,1.764c0,1.921-0.605,5.636-1.817,11.144s-1.817,8.711-1.817,9.611s0.107,1.351,0.323,1.351  l2.521-0.898l0.647,1.263c-0.815,0.646-1.806,1.248-2.97,1.799S-550.221,630.648-551.048,630.648z"></path>
<path display="none" fill="#DAE6EB" d="M-544.408,623.986c0-3,0.906-5.369,2.719-7.107c1.812-1.74,3.87-2.609,6.174-2.609  c1.416,0,2.58,0.35,3.491,1.045c0.911,0.694,1.368,1.625,1.368,2.789c0,1.166-0.295,2.142-0.883,2.935  c-0.588,0.791-1.302,1.403-2.143,1.836c-1.705,0.841-3.264,1.366-4.68,1.584l-0.864,0.106c0.167,2.256,1.092,3.385,2.772,3.385  c0.576,0,1.188-0.146,1.836-0.434c0.647-0.287,1.151-0.574,1.512-0.863l0.54-0.433l0.862,1.151c-0.19,0.265-0.576,0.611-1.15,1.044  c-0.576,0.433-1.116,0.792-1.62,1.079c-1.392,0.77-2.916,1.152-4.571,1.152c-1.656,0-2.965-0.59-3.925-1.766  C-543.926,627.708-544.408,626.074-544.408,623.986z M-536.342,621.252c0.72-0.814,1.08-1.872,1.08-3.168  c0-1.297-0.384-1.944-1.151-1.944c-0.914,0-1.615,0.773-2.106,2.322c-0.492,1.548-0.738,2.993-0.738,4.338  C-538.035,622.584-537.062,622.068-536.342,621.252z"></path>
<path display="none" fill="#DAE6EB" d="M-518.416,625.5c0,1.512-0.666,2.747-1.998,3.708c-1.332,0.96-2.853,1.438-4.556,1.438  s-3.055-0.359-4.051-1.08c-0.996-0.722-1.494-1.354-1.494-1.908c0-0.336,0.422-0.881,1.263-1.637  c0.84-0.759,1.549-1.221,2.125-1.389c1.196,0.891,2.184,2.293,2.95,4.212c0.888-0.069,1.33-0.489,1.33-1.26  c0-1.104-0.971-2.67-2.914-4.698c-1.942-2.025-2.916-3.643-2.916-4.842c0-1.2,0.539-2.13,1.619-2.79s2.383-0.99,3.906-0.99  c1.522,0,2.668,0.271,3.438,0.812c0.771,0.539,1.15,1.271,1.15,2.195c0,0.924-0.729,2.201-2.195,3.834  c0.168,0.168,0.386,0.391,0.648,0.666c0.264,0.274,0.61,0.797,1.043,1.564C-518.63,624.109-518.416,624.828-518.416,625.5z   M-520.36,617.292c0-0.841-0.576-1.261-1.729-1.261c-0.555,0-1.01,0.113-1.367,0.343c-0.358,0.229-0.541,0.485-0.541,0.772  c0,0.527,0.527,1.272,1.584,2.231l0.541,0.468C-520.865,618.984-520.36,618.132-520.36,617.292z"></path>
<path display="none" fill="#DAE6EB" d="M-461.41,620.064c-0.168,0.022-0.479,0.034-0.936,0.034s-0.793-0.083-1.008-0.252  c-0.168-0.167-0.252-0.573-0.252-1.225c0-0.648,0.059-1.146,0.18-1.493c0.119-0.35,0.498-0.521,1.135-0.521  c0.638,0,1.242,0.155,1.816,0.469c0.695-0.526,1.344-1.344,1.945-2.447c0.6-1.104,0.896-2.244,0.896-3.421  c0-1.703-0.511-2.951-1.529-3.743c-1.021-0.792-2.598-1.188-4.732-1.188c-3.072,0-5.586,0.601-7.541,1.799  c-1.957,1.201-2.938,2.474-2.938,3.815c0,0.647,0.268,1.185,0.793,1.604c0.527,0.42,1.059,0.702,1.584,0.847  c-0.096,0.96-0.396,1.85-0.898,2.664c-0.938-0.145-1.812-0.631-2.627-1.458c-0.816-0.828-1.227-1.95-1.227-3.366  c0-2.353,1.354-4.283,4.068-5.796c2.711-1.513,6.069-2.269,10.079-2.269c3.216,0,5.761,0.601,7.632,1.8  c1.873,1.2,2.809,2.965,2.809,5.292c0,1.633-0.609,3.104-1.836,4.41c-1.225,1.31-2.697,2.383-4.428,3.223  c0.407,0.407,0.772,0.982,1.098,1.729c0.324,0.744,0.59,1.353,0.793,1.817c0.203,0.47,0.365,0.847,0.484,1.136  c0.121,0.287,0.289,0.694,0.504,1.224c0.938,2.545,1.783,4.424,2.539,5.636c0.756,1.211,1.479,1.816,2.178,1.816  c0.146,0,0.252-0.012,0.324-0.036l0.358,1.297c-1.177,0.938-2.521,1.403-4.03,1.403c-1.513,0-2.58-0.392-3.205-1.17  c-0.623-0.78-1.199-2.383-1.728-4.808c-0.071-0.239-0.276-1.114-0.612-2.628C-460.387,623.04-460.953,620.975-461.41,620.064z   M-468.354,611.424c0-0.553-0.289-1.15-0.865-1.8l0.037-0.253c1.271-0.742,2.854-1.115,4.752-1.115c0.742,0,1.296,0.061,1.656,0.182  c0.118,0.264,0.18,0.635,0.18,1.114c0,1.058-0.618,4.081-1.854,9.072c-1.234,4.991-1.961,8.725-2.178,11.194  c-1.416,0.407-2.988,0.61-4.715,0.61c-0.408,0-0.709-0.034-0.9-0.106c0.119-1.535,0.799-4.674,2.033-9.414  C-468.973,616.17-468.354,613.008-468.354,611.424z"></path>
<path display="none" fill="#DAE6EB" d="M-450.93,627.498c0-1.021,0.312-2.771,0.937-5.258c0.623-2.481,0.938-4.008,0.938-4.569  c0-0.563-0.434-1.313-1.297-2.25l0.037-0.47c1.631-0.334,3.777-0.504,6.441-0.504c0.121,0.312,0.182,0.877,0.182,1.691  c0,0.815-0.338,2.559-1.01,5.223s-1.008,4.317-1.008,4.967c0,0.648,0.239,0.974,0.721,0.974c0.695,0,1.5-0.252,2.412-0.756  c0.098-0.576,0.336-1.681,0.721-3.312c0.863-3.84,1.297-6.588,1.297-8.244c0.84-0.336,2.352-0.504,4.535-0.504h0.686  c0,1.127-0.337,3.33-1.008,6.604c-0.674,3.274-1.01,5.195-1.01,5.761c0,0.562,0.121,0.848,0.359,0.848  c0.145,0,0.828-0.289,2.053-0.863l0.686,1.15c-2.137,1.775-4.01,2.664-5.617,2.664c-0.768,0-1.422-0.218-1.961-0.646  c-0.541-0.434-0.848-0.995-0.918-1.691c-1.943,1.584-3.709,2.377-5.293,2.377c-0.84,0-1.529-0.276-2.068-0.828  C-450.662,629.303-450.93,628.52-450.93,627.498z"></path>
<path display="none" fill="#DAE6EB" d="M-432.287,630.322h-0.684c0-1.127,0.342-3.286,1.025-6.479  c0.686-3.189,1.023-5.004,1.023-5.438c0-0.793-0.336-1.631-1.008-2.521l-0.324-0.434l0.037-0.467  c1.295-0.359,3.371-0.541,6.229-0.541c0.312,0.408,0.479,1.151,0.505,2.231c2.088-1.606,3.852-2.412,5.291-2.412  c0.864,0,1.555,0.302,2.069,0.9c0.514,0.598,0.771,1.35,0.771,2.25c0,0.897-0.273,2.452-0.827,4.659  c-0.552,2.209-0.828,3.69-0.828,4.447c0,0.756,0.097,1.133,0.289,1.133c0.146,0,0.647-0.228,1.513-0.685l0.433-0.216l0.647,1.261  c-0.218,0.191-0.505,0.433-0.863,0.72c-0.36,0.289-1.026,0.681-1.997,1.17c-0.974,0.492-1.845,0.738-2.609,0.738  c-1.754,0-2.629-0.994-2.629-2.988c0-0.84,0.271-2.387,0.812-4.645c0.539-2.255,0.811-3.708,0.811-4.355  c0-0.646-0.203-0.972-0.609-0.972c-0.697,0-1.55,0.302-2.559,0.9c-0.071,0.407-0.312,1.487-0.719,3.237  c-0.842,3.771-1.262,6.435-1.262,7.992C-428.587,630.156-430.1,630.322-432.287,630.322z"></path>
<path display="none" fill="#DAE6EB" d="M-493.731,630.863c-0.841,0-2.103-0.484-3.78-1.459c-1.681-0.973-3.072-1.611-4.177-1.926  c-0.815,0.863-1.603,1.565-2.356,2.105s-1.267,0.811-1.529,0.811c-0.262,0-0.736-0.427-1.422-1.277  c-0.687-0.852-1.025-1.5-1.025-1.942s0.4-1.08,1.207-1.908c0.804-0.825,1.73-1.239,2.789-1.239c0.646,0,1.281,0.069,1.906,0.215  c1.682-1.344,3.275-3.293,4.789-5.852c1.514-2.556,2.27-4.793,2.27-6.714c0-1.08-0.322-1.926-0.975-2.538  c-0.646-0.611-1.434-0.918-2.355-0.918c-0.924,0-1.822,0.301-2.699,0.899c-0.875,0.602-1.625,1.429-2.25,2.483l-1.656-0.721  c0.479-1.513,1.564-2.929,3.261-4.248c1.69-1.318,3.573-1.979,5.649-1.979c2.075,0,3.695,0.562,4.859,1.69  c1.164,1.13,1.746,2.544,1.746,4.248c0,1.226-0.354,2.562-1.062,4.015s-1.615,2.838-2.72,4.158c-2.063,2.426-4.127,4.465-6.19,6.119  c3,0.815,5.313,1.227,6.947,1.227c0.457,0,0.793-0.127,1.008-0.379c0.217-0.252,0.555-0.834,1.01-1.746l1.188,0.252  C-489.542,628.656-491.02,630.863-493.731,630.863z"></path>
<g enable-background="new    ">
	<path fill="#DAE6EB" d="M-587.182,622.372c0.065,0.234,0.129,0.478,0.188,0.729c0.217-0.504,0.469-0.99,0.757-1.458l10.134-16.218   c0.168-0.276,0.339-0.441,0.514-0.495c0.174-0.054,0.41-0.081,0.711-0.081h2.502l-3.168,25.794h-2.953l2.358-19.062   c0.024-0.24,0.063-0.498,0.117-0.774s0.11-0.564,0.171-0.864l-10.025,16.164c-0.312,0.517-0.75,0.774-1.314,0.774h-0.468   c-0.552,0-0.931-0.258-1.134-0.774l-6.211-16.2c-0.012,0.288-0.023,0.57-0.035,0.847c-0.012,0.275-0.03,0.534-0.055,0.773   l-2.34,19.116h-2.97l3.187-25.794h2.465c0.301,0,0.537,0.027,0.711,0.081s0.31,0.219,0.406,0.495l6.245,16.218   C-587.317,621.896-587.248,622.139-587.182,622.372z"></path>
	<path fill="#DAE6EB" d="M-564.565,612.409l-2.196,18.234h-3.15l2.196-18.234H-564.565z M-563.359,606.686   c0,0.312-0.062,0.603-0.189,0.873c-0.126,0.27-0.294,0.51-0.504,0.72s-0.447,0.375-0.711,0.495s-0.54,0.18-0.828,0.18   c-0.275,0-0.546-0.06-0.81-0.18c-0.265-0.12-0.495-0.285-0.693-0.495s-0.356-0.45-0.478-0.72c-0.119-0.271-0.18-0.561-0.18-0.873   c0-0.312,0.061-0.605,0.18-0.882c0.121-0.276,0.283-0.52,0.486-0.729c0.204-0.21,0.438-0.378,0.702-0.504   c0.265-0.126,0.534-0.188,0.81-0.188c0.289,0,0.564,0.06,0.828,0.18s0.502,0.285,0.711,0.495c0.211,0.21,0.375,0.456,0.496,0.738   C-563.419,606.076-563.359,606.374-563.359,606.686z"></path>
	<path fill="#DAE6EB" d="M-561.271,630.644l3.223-26.514h3.149l-3.222,26.514H-561.271z"></path>
	<path fill="#DAE6EB" d="M-538.448,616.315c0,0.792-0.162,1.521-0.485,2.188c-0.324,0.666-0.918,1.266-1.783,1.8   c-0.863,0.534-2.051,0.999-3.563,1.395c-1.512,0.396-3.456,0.715-5.832,0.954c-0.012,0.133-0.019,0.261-0.019,0.387   c0,0.127,0,0.256,0,0.388c0,1.608,0.352,2.835,1.054,3.681s1.761,1.27,3.177,1.27c0.576,0,1.09-0.061,1.539-0.181   c0.45-0.119,0.852-0.267,1.206-0.44s0.666-0.366,0.937-0.576c0.27-0.21,0.519-0.402,0.746-0.576   c0.229-0.174,0.438-0.321,0.631-0.441c0.191-0.119,0.384-0.18,0.576-0.18c0.215,0,0.414,0.103,0.594,0.306l0.791,0.99   c-0.611,0.637-1.209,1.18-1.791,1.629c-0.582,0.45-1.178,0.825-1.79,1.125c-0.612,0.301-1.251,0.52-1.917,0.657   s-1.383,0.207-2.151,0.207c-1.044,0-1.979-0.174-2.808-0.521c-0.828-0.349-1.53-0.844-2.106-1.485   c-0.575-0.642-1.021-1.419-1.332-2.331s-0.468-1.932-0.468-3.061c0-0.936,0.1-1.868,0.297-2.799   c0.198-0.93,0.486-1.814,0.864-2.654s0.84-1.62,1.386-2.341c0.546-0.72,1.17-1.341,1.872-1.862   c0.702-0.522,1.476-0.934,2.322-1.233c0.846-0.3,1.755-0.45,2.727-0.45c0.925,0,1.722,0.133,2.394,0.396s1.225,0.6,1.656,1.008   c0.433,0.408,0.754,0.858,0.963,1.35C-538.552,615.403-538.448,615.872-538.448,616.315z M-543.956,614.462   c-0.756,0-1.452,0.155-2.088,0.468s-1.2,0.741-1.692,1.287s-0.912,1.188-1.26,1.926s-0.618,1.533-0.811,2.385   c1.848-0.228,3.33-0.488,4.446-0.783c1.116-0.294,1.974-0.611,2.574-0.953c0.601-0.343,0.996-0.712,1.188-1.107   c0.191-0.396,0.287-0.81,0.287-1.242c0-0.216-0.048-0.44-0.144-0.675c-0.097-0.234-0.249-0.447-0.459-0.639   c-0.21-0.192-0.483-0.352-0.819-0.478S-543.476,614.462-543.956,614.462z"></path>
	<path fill="#DAE6EB" d="M-524.695,615.325c-0.097,0.145-0.193,0.25-0.289,0.315c-0.096,0.066-0.216,0.099-0.359,0.099   c-0.168,0-0.352-0.065-0.549-0.197c-0.198-0.133-0.438-0.279-0.721-0.441c-0.281-0.162-0.627-0.312-1.035-0.45   c-0.408-0.138-0.899-0.207-1.476-0.207c-0.54,0-1.032,0.075-1.476,0.226c-0.444,0.149-0.828,0.356-1.152,0.621   c-0.324,0.264-0.573,0.572-0.747,0.927c-0.174,0.354-0.261,0.729-0.261,1.125c0,0.563,0.186,1.014,0.558,1.35   s0.84,0.627,1.404,0.873c0.563,0.246,1.173,0.483,1.827,0.711c0.654,0.229,1.263,0.517,1.826,0.864   c0.564,0.348,1.033,0.792,1.404,1.332c0.372,0.54,0.559,1.242,0.559,2.105c0,0.841-0.166,1.645-0.495,2.412   c-0.331,0.769-0.804,1.443-1.423,2.025c-0.617,0.582-1.361,1.047-2.231,1.395c-0.87,0.349-1.845,0.522-2.925,0.522   c-1.164,0-2.193-0.207-3.087-0.621s-1.623-0.945-2.187-1.593l0.791-1.225c0.096-0.155,0.21-0.275,0.342-0.359   c0.133-0.084,0.301-0.126,0.504-0.126c0.192,0,0.385,0.084,0.576,0.252c0.192,0.168,0.433,0.357,0.721,0.566   c0.287,0.211,0.65,0.399,1.089,0.567s0.993,0.252,1.665,0.252c0.588,0,1.119-0.09,1.593-0.27c0.474-0.181,0.876-0.42,1.206-0.721   c0.33-0.3,0.582-0.65,0.756-1.053s0.262-0.831,0.262-1.287c0-0.612-0.187-1.098-0.559-1.458s-0.84-0.66-1.404-0.899   c-0.564-0.24-1.17-0.466-1.818-0.676c-0.647-0.21-1.254-0.479-1.817-0.81s-1.032-0.759-1.403-1.287   c-0.373-0.528-0.559-1.229-0.559-2.106c0-0.768,0.152-1.509,0.459-2.223s0.747-1.347,1.322-1.898   c0.576-0.553,1.275-0.993,2.098-1.323s1.749-0.495,2.781-0.495c1.092,0,2.055,0.183,2.889,0.549s1.551,0.861,2.151,1.485   L-524.695,615.325z"></path>
	<path fill="#DAE6EB" d="M-503.888,604.598c0.996,0,1.917,0.141,2.763,0.423c0.847,0.282,1.575,0.693,2.187,1.233   c0.613,0.54,1.09,1.196,1.432,1.971s0.514,1.653,0.514,2.637c0,1.093-0.172,2.088-0.514,2.988s-0.807,1.752-1.395,2.556   c-0.588,0.805-1.275,1.584-2.062,2.34c-0.786,0.757-1.623,1.537-2.511,2.341l-7.758,7.056c0.492-0.132,0.983-0.234,1.476-0.306   c0.492-0.072,0.966-0.108,1.422-0.108h8.82c0.312,0,0.552,0.084,0.72,0.252s0.252,0.391,0.252,0.666   c0,0.12-0.012,0.282-0.035,0.486c-0.025,0.204-0.049,0.39-0.072,0.558l-0.127,0.954h-17.135l0.125-1.062   c0.024-0.204,0.096-0.43,0.217-0.676c0.119-0.245,0.287-0.465,0.504-0.656l9.324-8.334c0.875-0.78,1.655-1.521,2.34-2.224   c0.684-0.702,1.262-1.397,1.736-2.088c0.475-0.689,0.834-1.395,1.08-2.115c0.246-0.72,0.369-1.494,0.369-2.321   c0-0.648-0.105-1.218-0.314-1.71c-0.211-0.492-0.502-0.9-0.873-1.225c-0.373-0.324-0.813-0.569-1.324-0.738   c-0.51-0.167-1.064-0.252-1.664-0.252c-1.344,0-2.487,0.352-3.43,1.054c-0.941,0.702-1.635,1.665-2.078,2.889   c-0.133,0.349-0.304,0.594-0.514,0.738c-0.21,0.144-0.465,0.216-0.765,0.216c-0.06,0-0.126-0.003-0.198-0.009   s-0.145-0.016-0.216-0.027l-1.565-0.27c0.299-1.177,0.746-2.215,1.34-3.114c0.595-0.9,1.293-1.656,2.098-2.269   c0.804-0.611,1.701-1.073,2.691-1.386C-506.039,604.754-504.993,604.598-503.888,604.598z"></path>
	<path fill="#DAE6EB" d="M-482.199,619.825l-1.332,10.818h-3.349l3.15-25.794h6.786c1.367,0,2.553,0.144,3.555,0.432   s1.83,0.699,2.484,1.233c0.653,0.534,1.14,1.182,1.457,1.944c0.318,0.762,0.478,1.61,0.478,2.547c0,1.044-0.156,2.016-0.468,2.916   c-0.312,0.899-0.762,1.707-1.35,2.421c-0.589,0.714-1.297,1.32-2.125,1.817c-0.828,0.498-1.764,0.867-2.808,1.107   c0.384,0.264,0.702,0.624,0.954,1.08l5.562,10.296h-2.988c-0.588,0-1.008-0.24-1.26-0.72l-4.86-9.288   c-0.156-0.3-0.337-0.51-0.54-0.63c-0.204-0.12-0.528-0.181-0.973-0.181H-482.199z M-480.669,607.495l-1.224,9.883h3.294   c1.02,0,1.92-0.145,2.7-0.433s1.437-0.692,1.971-1.215c0.534-0.521,0.937-1.14,1.206-1.854s0.404-1.497,0.404-2.35   c0-1.308-0.41-2.307-1.232-2.997c-0.822-0.689-2.055-1.035-3.699-1.035H-480.669z"></path>
	<path fill="#DAE6EB" d="M-461.175,612.409l-1.368,11.593c-0.024,0.24-0.045,0.468-0.063,0.684c-0.018,0.216-0.026,0.426-0.026,0.63   c0,0.984,0.183,1.717,0.549,2.196s0.945,0.72,1.737,0.72c0.552,0,1.119-0.149,1.701-0.45c0.582-0.3,1.146-0.726,1.691-1.277   s1.053-1.218,1.521-1.998c0.468-0.78,0.875-1.65,1.224-2.61l1.134-9.486h3.187l-2.196,18.234h-1.584   c-0.372,0-0.66-0.084-0.863-0.252c-0.205-0.168-0.307-0.426-0.307-0.774c0-0.012,0.006-0.119,0.018-0.323s0.027-0.426,0.045-0.666   c0.019-0.24,0.037-0.462,0.055-0.666s0.027-0.312,0.027-0.324l0.125-1.458c-0.972,1.548-2.058,2.721-3.258,3.519   c-1.199,0.799-2.436,1.197-3.707,1.197c-1.357,0-2.41-0.462-3.16-1.386s-1.125-2.25-1.125-3.979c0-0.239,0.006-0.485,0.019-0.737   c0.012-0.252,0.036-0.517,0.071-0.792l1.369-11.593H-461.175z"></path>
	<path fill="#DAE6EB" d="M-447.37,630.644l2.179-18.252h1.602c0.72,0,1.08,0.36,1.08,1.08l-0.27,3.528   c0.971-1.608,2.066-2.82,3.284-3.637c1.218-0.815,2.481-1.224,3.789-1.224c1.356,0,2.409,0.456,3.159,1.368   s1.125,2.244,1.125,3.996c0,0.24-0.006,0.485-0.018,0.737c-0.013,0.252-0.037,0.517-0.072,0.792l-1.368,11.61h-3.204l1.368-11.61   c0.024-0.239,0.045-0.471,0.063-0.692c0.018-0.223,0.026-0.436,0.026-0.64c0-0.983-0.183-1.713-0.549-2.187   s-0.939-0.711-1.72-0.711c-0.575,0-1.16,0.156-1.754,0.468c-0.595,0.312-1.168,0.753-1.72,1.323s-1.065,1.26-1.538,2.07   c-0.475,0.81-0.88,1.713-1.216,2.709l-1.044,9.27H-447.37z"></path>
</g>
</svg>