<?xml version="1.0" encoding="utf-8"?>
<!-- Generator: Adobe Illustrator 14.0.0, SVG Export Plug-In  -->
<!DOCTYPE svg PUBLIC "-//W3C//DTD SVG 1.1//EN" "http://www.w3.org/Graphics/SVG/1.1/DTD/svg11.dtd" [
	<!ENTITY ns_flows "http://ns.adobe.com/Flows/1.0/">
]>
<svg version="1.1"
	 xmlns="http://www.w3.org/2000/svg" xmlns:xlink="http://www.w3.org/1999/xlink" xmlns:a="http://ns.adobe.com/AdobeSVGViewerExtensions/3.0/"
	 x="0px" y="0px" width="233px" height="55px" viewBox="101.974 56.691 233 55" enable-background="new 101.974 56.691 233 55"
	 xml:space="preserve">
<defs>
</defs>
<rect display="none" fill="#172226" width="430.554" height="166.707"/>
<path fill="#DAE6EB" d="M119.349,56.69c-9.597,0-17.375,7.862-17.375,17.569c0,8.381,12.934,30.767,16.479,36.734
	c0.188,0.303,0.528,0.501,0.897,0.501c0.357,0,0.7-0.198,0.881-0.501c3.544-5.97,16.482-28.354,16.482-36.734
	C136.705,64.553,128.938,56.69,119.349,56.69z M120.1,106.281c-0.154,0.26-0.447,0.43-0.752,0.43c-0.314,0-0.604-0.17-0.765-0.43
	c-3.025-5.095-14.063-24.197-14.063-31.35c0-8.285,6.638-14.996,14.828-14.996c8.184,0,14.812,6.711,14.819,14.996
	C134.167,82.083,123.125,101.187,120.1,106.281z"/>
<path fill="#FF5B00" d="M119.348,62.125c-7.154,0-12.952,5.86-12.952,13.099c0,6.247,9.642,22.934,12.284,27.383
	c0.14,0.227,0.393,0.374,0.668,0.374c0.266,0,0.522-0.147,0.656-0.374c2.643-4.449,12.287-21.136,12.287-27.383
	C132.285,67.986,126.495,62.125,119.348,62.125z M119.348,84.851c-5.247,0-9.513-4.32-9.513-9.628c0-5.311,4.267-9.625,9.513-9.625
	c5.24,0,9.504,4.314,9.504,9.625C128.852,80.53,124.588,84.851,119.348,84.851z"/>
<path display="none" fill="#DAE6EB" d="M184.677,95.522c-1.56,1.08-3.024,1.619-4.392,1.619s-2.334-0.324-2.898-0.973
	c-0.564-0.647-0.846-1.499-0.846-2.557c0-1.057,0.563-3.772,1.692-8.153c1.128-4.379,1.692-7.099,1.692-8.153
	c0-1.32-0.468-1.98-1.404-1.98s-2.208,0.696-3.816,2.089c-0.048,0.191-0.444,1.655-1.188,4.393c-1.632,6-2.508,10.835-2.628,14.507
	c-0.936,0.359-2.628,0.541-5.076,0.541h-0.468c0-1.488,0.636-4.92,1.908-10.297c1.272-5.375,1.908-8.508,1.908-9.396
	c0-1.225-0.492-1.837-1.476-1.837c-1.057,0-2.437,0.744-4.14,2.232c0,4.896-0.864,9.479-2.592,13.751
	c-0.816,2.017-1.878,3.653-3.186,4.914c-1.309,1.26-2.652,1.891-4.032,1.891c-1.38,0-2.46-0.414-3.24-1.241
	c-0.78-0.828-1.17-1.979-1.17-3.456s0.528-3.217,1.584-5.221s2.178-3.72,3.366-5.147c1.188-1.427,2.406-2.718,3.654-3.87
	c0-2.208-0.264-3.539-0.792-3.995c-0.264-0.217-0.642-0.324-1.134-0.324c-0.492,0-1.212,0.216-2.16,0.647
	c-0.948,0.433-1.854,1.021-2.718,1.765l-0.9-1.261c0.84-1.03,2.1-2.027,3.78-2.987c1.68-0.959,3.174-1.439,4.482-1.439
	c1.308,0,2.34,0.342,3.096,1.025c0.756,0.685,1.29,1.555,1.602,2.609c3.312-2.711,5.927-4.067,7.848-4.067
	c0.96,0,1.782,0.3,2.466,0.899c0.684,0.601,1.122,1.5,1.314,2.7c2.832-2.399,5.196-3.601,7.092-3.601c1.056,0,1.95,0.42,2.682,1.26
	c0.732,0.841,1.098,1.975,1.098,3.402c0,1.427-0.588,4.302-1.764,8.622c-1.176,4.319-1.764,7.05-1.764,8.189
	c0,1.141,0.36,1.71,1.08,1.71c0.24,0,0.54-0.061,0.9-0.182L184.677,95.522z M153.033,94.694c0.96,0,1.914-1.192,2.862-3.582
	c0.948-2.389,1.589-5.383,1.926-8.981c-1.536,1.584-2.916,3.463-4.14,5.636c-1.224,2.172-1.836,3.868-1.836,5.094
	C151.845,94.082,152.241,94.694,153.033,94.694z"/>
<path display="none" fill="#DAE6EB" d="M195.297,82.994c0,1.008-0.324,2.741-0.972,5.201s-0.972,4.068-0.972,4.824
	s0.108,1.133,0.324,1.133c0.144,0,0.696-0.228,1.656-0.685l0.432-0.216l0.612,1.262c-0.216,0.19-0.504,0.432-0.864,0.719
	c-0.36,0.289-1.032,0.68-2.016,1.17c-0.984,0.492-1.896,0.738-2.736,0.738c-0.84,0-1.5-0.259-1.98-0.772
	c-0.48-0.517-0.72-1.213-0.72-2.089s0.3-2.437,0.9-4.68c0.6-2.244,0.9-3.703,0.9-4.375c0-1.009-0.312-1.956-0.936-2.845
	l-0.324-0.433l0.036-0.468c1.272-0.359,3.335-0.54,6.192-0.54C195.14,81.301,195.297,81.985,195.297,82.994z M191.192,77
	c-0.479-0.469-0.72-1.099-0.72-1.891s0.33-1.487,0.99-2.088c0.66-0.601,1.422-0.899,2.286-0.899c0.864,0,1.536,0.239,2.016,0.72
	c0.48,0.479,0.72,1.11,0.72,1.891s-0.342,1.471-1.026,2.069c-0.684,0.602-1.446,0.9-2.286,0.9
	C192.332,77.702,191.672,77.467,191.192,77z"/>
<path display="none" fill="#DAE6EB" d="M200.426,97.142c-0.828,0-1.512-0.275-2.052-0.828c-0.54-0.551-0.81-1.325-0.81-2.321
	c0-0.995,0.594-4.177,1.782-9.539c1.188-5.364,1.782-9.234,1.782-11.61l-0.216-1.584c1.872-0.647,3.624-0.972,5.256-0.972
	c0.24,0.336,0.36,0.924,0.36,1.764c0,1.921-0.606,5.635-1.818,11.143c-1.212,5.508-1.818,8.711-1.818,9.612
	c0,0.9,0.108,1.35,0.324,1.35l2.52-0.898l0.648,1.262c-0.816,0.646-1.806,1.248-2.97,1.799S201.253,97.142,200.426,97.142z"/>
<path display="none" fill="#DAE6EB" d="M207.067,90.481c0-3,0.906-5.369,2.718-7.108c1.812-1.74,3.87-2.609,6.174-2.609
	c1.416,0,2.58,0.349,3.491,1.044c0.912,0.695,1.369,1.626,1.369,2.79c0,1.165-0.295,2.141-0.883,2.934
	c-0.588,0.791-1.302,1.404-2.143,1.836c-1.705,0.841-3.264,1.367-4.68,1.584l-0.864,0.107c0.167,2.256,1.092,3.385,2.772,3.385
	c0.576,0,1.188-0.146,1.836-0.434c0.648-0.287,1.152-0.574,1.512-0.863l0.54-0.433l0.862,1.151c-0.19,0.265-0.575,0.611-1.15,1.044
	c-0.576,0.433-1.116,0.792-1.62,1.079c-1.392,0.77-2.916,1.152-4.572,1.152c-1.656,0-2.964-0.589-3.924-1.765
	C207.548,94.202,207.067,92.569,207.067,90.481z M215.132,87.746c0.72-0.814,1.08-1.872,1.08-3.168c0-1.297-0.384-1.944-1.152-1.944
	c-0.913,0-1.615,0.773-2.106,2.322c-0.492,1.548-0.738,2.993-0.738,4.338C213.439,89.078,214.412,88.562,215.132,87.746z"/>
<path display="none" fill="#DAE6EB" d="M233.058,91.994c0,1.512-0.666,2.747-1.998,3.708c-1.332,0.96-2.852,1.438-4.555,1.438
	s-3.055-0.359-4.051-1.08s-1.494-1.354-1.494-1.908c0-0.335,0.422-0.881,1.262-1.637c0.84-0.758,1.549-1.22,2.125-1.388
	c1.197,0.89,2.184,2.293,2.951,4.212c0.887-0.07,1.33-0.49,1.33-1.26c0-1.104-0.971-2.67-2.914-4.698
	c-1.943-2.026-2.916-3.643-2.916-4.842c0-1.2,0.539-2.13,1.619-2.79s2.383-0.99,3.906-0.99c1.522,0,2.668,0.271,3.438,0.811
	s1.15,1.271,1.15,2.196c0,0.924-0.73,2.201-2.195,3.834c0.168,0.168,0.385,0.39,0.648,0.666c0.264,0.274,0.61,0.797,1.043,1.564
	C232.844,90.603,233.058,91.322,233.058,91.994z M231.114,83.786c0-0.841-0.576-1.261-1.729-1.261c-0.555,0-1.01,0.114-1.367,0.343
	c-0.359,0.229-0.541,0.485-0.541,0.773c0,0.527,0.527,1.272,1.584,2.231l0.541,0.468C230.61,85.478,231.114,84.626,231.114,83.786z"
	/>
<path display="none" fill="#DAE6EB" d="M290.065,86.558c-0.168,0.023-0.479,0.035-0.936,0.035s-0.793-0.083-1.008-0.252
	c-0.168-0.167-0.252-0.574-0.252-1.225c0-0.648,0.059-1.146,0.18-1.493c0.119-0.349,0.498-0.521,1.135-0.521
	s1.242,0.155,1.816,0.468c0.695-0.526,1.344-1.344,1.945-2.447c0.6-1.104,0.897-2.244,0.897-3.421c0-1.703-0.511-2.951-1.529-3.743
	c-1.021-0.792-2.598-1.188-4.733-1.188c-3.072,0-5.586,0.601-7.541,1.8c-1.957,1.201-2.937,2.473-2.937,3.815
	c0,0.647,0.267,1.184,0.793,1.603c0.527,0.42,1.058,0.702,1.584,0.847c-0.096,0.96-0.396,1.849-0.899,2.664
	c-0.937-0.145-1.812-0.631-2.627-1.458c-0.816-0.828-1.226-1.95-1.226-3.366c0-2.353,1.354-4.283,4.068-5.796
	c2.711-1.513,6.069-2.269,10.079-2.269c3.216,0,5.761,0.601,7.632,1.8c1.873,1.2,2.809,2.965,2.809,5.292
	c0,1.633-0.61,3.104-1.836,4.41c-1.225,1.31-2.698,2.383-4.428,3.223c0.407,0.407,0.772,0.983,1.098,1.729
	c0.324,0.744,0.589,1.352,0.793,1.817c0.203,0.47,0.365,0.847,0.484,1.136c0.121,0.286,0.289,0.694,0.504,1.223
	c0.938,2.545,1.783,4.424,2.539,5.636c0.756,1.211,1.479,1.817,2.178,1.817c0.146,0,0.252-0.013,0.324-0.037l0.358,1.297
	c-1.176,0.938-2.521,1.404-4.03,1.404c-1.513,0-2.58-0.392-3.205-1.17c-0.623-0.781-1.199-2.384-1.728-4.808
	c-0.071-0.239-0.276-1.115-0.612-2.628C291.087,89.534,290.521,87.469,290.065,86.558z M283.12,77.918
	c0-0.553-0.289-1.151-0.865-1.8l0.037-0.253c1.271-0.742,2.854-1.115,4.752-1.115c0.742,0,1.296,0.061,1.656,0.181
	c0.118,0.264,0.18,0.636,0.18,1.115c0,1.058-0.618,4.081-1.854,9.072c-1.235,4.991-1.961,8.725-2.178,11.194
	c-1.416,0.408-2.988,0.611-4.715,0.611c-0.408,0-0.709-0.035-0.9-0.107c0.119-1.535,0.798-4.674,2.033-9.414
	C282.501,82.664,283.12,79.502,283.12,77.918z"/>
<path display="none" fill="#DAE6EB" d="M300.544,93.992c0-1.021,0.312-2.771,0.937-5.257c0.623-2.482,0.937-4.008,0.937-4.57
	c0-0.563-0.433-1.313-1.297-2.25l0.037-0.469c1.631-0.335,3.778-0.504,6.442-0.504c0.121,0.312,0.181,0.876,0.181,1.691
	s-0.337,2.558-1.009,5.222s-1.008,4.318-1.008,4.967s0.239,0.974,0.721,0.974c0.695,0,1.5-0.252,2.412-0.756
	c0.097-0.576,0.336-1.681,0.72-3.312c0.864-3.84,1.297-6.587,1.297-8.244c0.84-0.336,2.352-0.504,4.535-0.504h0.686
	c0,1.128-0.337,3.33-1.008,6.605c-0.674,3.275-1.01,5.195-1.01,5.761c0,0.562,0.121,0.847,0.36,0.847
	c0.144,0,0.828-0.289,2.052-0.863l0.686,1.15c-2.137,1.776-4.01,2.664-5.617,2.664c-0.768,0-1.422-0.217-1.961-0.646
	c-0.541-0.434-0.848-0.995-0.918-1.691c-1.943,1.584-3.709,2.376-5.293,2.376c-0.84,0-1.529-0.276-2.068-0.827
	C300.812,95.797,300.544,95.013,300.544,93.992z"/>
<path display="none" fill="#DAE6EB" d="M319.188,96.817h-0.684c0-1.127,0.342-3.287,1.025-6.479c0.686-3.19,1.024-5.004,1.024-5.438
	c0-0.792-0.336-1.631-1.008-2.521l-0.324-0.433l0.037-0.468c1.295-0.359,3.371-0.54,6.229-0.54c0.311,0.408,0.479,1.151,0.504,2.231
	c2.088-1.606,3.852-2.412,5.291-2.412c0.864,0,1.555,0.302,2.069,0.9s0.772,1.35,0.772,2.25c0,0.898-0.274,2.453-0.827,4.66
	c-0.552,2.209-0.828,3.69-0.828,4.447c0,0.756,0.097,1.133,0.289,1.133c0.146,0,0.647-0.228,1.512-0.685l0.433-0.216l0.647,1.261
	c-0.217,0.191-0.504,0.433-0.862,0.72c-0.361,0.289-1.027,0.68-1.998,1.17c-0.974,0.492-1.845,0.738-2.609,0.738
	c-1.754,0-2.629-0.995-2.629-2.988c0-0.84,0.27-2.387,0.811-4.645c0.539-2.255,0.811-3.708,0.811-4.355
	c0-0.646-0.203-0.972-0.61-0.972c-0.697,0-1.549,0.301-2.558,0.9c-0.071,0.407-0.312,1.487-0.719,3.238
	c-0.842,3.771-1.262,6.434-1.262,7.992C322.887,96.65,321.374,96.817,319.188,96.817z"/>
<path display="none" fill="#DAE6EB" d="M257.743,97.358c-0.84,0-2.102-0.485-3.78-1.459c-1.681-0.973-3.072-1.612-4.177-1.926
	c-0.815,0.863-1.602,1.565-2.356,2.105c-0.754,0.54-1.267,0.811-1.529,0.811s-0.737-0.427-1.422-1.277
	c-0.687-0.852-1.026-1.5-1.026-1.943s0.401-1.08,1.207-1.908c0.804-0.826,1.731-1.24,2.789-1.24c0.647,0,1.282,0.07,1.907,0.215
	c1.681-1.344,3.275-3.293,4.789-5.851c1.513-2.556,2.269-4.793,2.269-6.714c0-1.08-0.322-1.926-0.974-2.538
	c-0.647-0.611-1.434-0.918-2.356-0.918c-0.924,0-1.822,0.301-2.699,0.899c-0.875,0.602-1.625,1.429-2.25,2.484l-1.656-0.721
	c0.479-1.513,1.564-2.929,3.26-4.248c1.691-1.318,3.574-1.979,5.65-1.979c2.075,0,3.695,0.563,4.859,1.691
	c1.164,1.129,1.746,2.544,1.746,4.248c0,1.225-0.354,2.562-1.062,4.015c-0.709,1.452-1.615,2.838-2.72,4.158
	c-2.063,2.425-4.127,4.464-6.19,6.119c3,0.815,5.313,1.226,6.947,1.226c0.457,0,0.793-0.127,1.008-0.379
	c0.217-0.252,0.554-0.833,1.009-1.746l1.188,0.252C261.932,95.15,260.454,97.358,257.743,97.358z"/>
<text transform="matrix(1 0 0 1 149.3252 97.1377)" fill="#DAE6EB" font-family="'Lato-Italic'" font-size="36">Miles 2 Run</text>
</svg>
